<svg xmlns="http://www.w3.org/2000/svg" viewBox="0 0 160 160" width="100%" height="100%">
  <!-- Slouchy Dome -->
  <path d="M 53 48 C 50 25 60 16 80 16 C 100 16 110 25 107 48 Z" fill="#0f766e" stroke="#134e4a" stroke-width="2.5"/>
  <path d="M 56 46 C 54 28 63 20 80 20 C 97 20 106 28 104 46 Z" fill="#14b8a6"/>
  <!-- Slouch folds -->
  <path d="M 68 28 Q 80 32 92 28" fill="none" stroke="#0f766e" stroke-width="2"/>
  <!-- Thick Folded Cuff Rib -->
  <rect x="50" y="44" width="60" height="13" rx="4" fill="#0f766e" stroke="#134e4a" stroke-width="2"/>
  <!-- Rib Lines -->
  <line x1="56" y1="46" x2="56" y2="55" stroke="#14b8a6" stroke-width="1.5"/>
  <line x1="62" y1="46" x2="62" y2="55" stroke="#14b8a6" stroke-width="1.5"/>
  <line x1="68" y1="46" x2="68" y2="55" stroke="#14b8a6" stroke-width="1.5"/>
  <line x1="74" y1="46" x2="74" y2="55" stroke="#14b8a6" stroke-width="1.5"/>
  <line x1="80" y1="46" x2="80" y2="55" stroke="#14b8a6" stroke-width="1.5"/>
  <line x1="86" y1="46" x2="86" y2="55" stroke="#14b8a6" stroke-width="1.5"/>
  <line x1="92" y1="46" x2="92" y2="55" stroke="#14b8a6" stroke-width="1.5"/>
  <line x1="98" y1="46" x2="98" y2="55" stroke="#14b8a6" stroke-width="1.5"/>
  <line x1="104" y1="46" x2="104" y2="55" stroke="#14b8a6" stroke-width="1.5"/>
  <!-- Small Fabric Badge -->
  <rect x="94" y="47" width="6" height="7" rx="1" fill="#f59e0b"/>
</svg>